<?xml version="1.0" encoding="UTF-8"?>
<svg id="Logo_Mark_-_Gradient" data-name="Logo Mark - Gradient" xmlns="http://www.w3.org/2000/svg" xmlns:xlink="http://www.w3.org/1999/xlink" viewBox="0 0 1920 1920">
  <defs>
    <style>
      .cls-1 {
        fill: url(#linear-gradient-2);
      }

      .cls-2 {
        fill: #fff;
      }

      .cls-3 {
        fill: url(#linear-gradient-6);
      }

      .cls-4 {
        fill: url(#linear-gradient-11);
      }

      .cls-5 {
        fill: url(#linear-gradient-10);
      }

      .cls-6 {
        fill: url(#linear-gradient-5);
      }

      .cls-7 {
        fill: url(#linear-gradient-7);
      }

      .cls-8 {
        fill: url(#linear-gradient-9);
      }

      .cls-9 {
        fill: url(#linear-gradient-3);
      }

      .cls-10 {
        fill: url(#linear-gradient);
      }

      .cls-11 {
        fill: url(#linear-gradient-4);
      }

      .cls-12 {
        fill: url(#linear-gradient-8);
      }

      .cls-13 {
        fill: url(#linear-gradient-12);
      }
    </style>
    <linearGradient id="linear-gradient" x1="308.51" y1="381.01" x2="613.96" y2="686.46" gradientUnits="userSpaceOnUse">
      <stop offset="0" stop-color="#32f7fd"/>
      <stop offset="1" stop-color="#11a2fc"/>
    </linearGradient>
    <linearGradient id="linear-gradient-2" x1="962.56" y1="1609" x2="381.91" y2="1028.35" gradientUnits="userSpaceOnUse">
      <stop offset="0" stop-color="#0d945b"/>
      <stop offset=".14" stop-color="#10955d"/>
      <stop offset=".27" stop-color="#1b9a65"/>
      <stop offset=".4" stop-color="#2ea271"/>
      <stop offset=".52" stop-color="#48ae83"/>
      <stop offset=".64" stop-color="#6abd9a"/>
      <stop offset=".76" stop-color="#94cfb6"/>
      <stop offset=".88" stop-color="#c5e5d8"/>
      <stop offset="1" stop-color="#fdfefd"/>
      <stop offset="1" stop-color="#fff"/>
    </linearGradient>
    <linearGradient id="linear-gradient-3" x1="1570.53" y1="405.4" x2="1282.7" y2="693.23" gradientUnits="userSpaceOnUse">
      <stop offset="0" stop-color="#f94f8f"/>
      <stop offset="1" stop-color="#e1055d"/>
    </linearGradient>
    <linearGradient id="linear-gradient-4" x1="735.31" y1="1155.52" x2="469.61" y2="889.83" gradientUnits="userSpaceOnUse">
      <stop offset="0" stop-color="#e30151"/>
      <stop offset="1" stop-color="#ff4787"/>
    </linearGradient>
    <linearGradient id="linear-gradient-5" x1="815.22" y1="1405.58" x2="1386.67" y2="834.13" gradientUnits="userSpaceOnUse">
      <stop offset="0" stop-color="#0757c9"/>
      <stop offset="1" stop-color="#19cbfb"/>
    </linearGradient>
    <linearGradient id="linear-gradient-6" x1="947.8" y1="1139.08" x2="947.8" y2="833.5" gradientUnits="userSpaceOnUse">
      <stop offset="0" stop-color="#f01a01"/>
      <stop offset="1" stop-color="#fd8109"/>
    </linearGradient>
    <linearGradient id="linear-gradient-7" x1="787.52" y1="865.78" x2="712.89" y2="736.52" gradientUnits="userSpaceOnUse">
      <stop offset="0" stop-color="#f01a01"/>
      <stop offset="1" stop-color="#fd8109"/>
    </linearGradient>
    <linearGradient id="linear-gradient-8" x1="911.34" y1="758.4" x2="836.72" y2="629.15" gradientUnits="userSpaceOnUse">
      <stop offset="0" stop-color="#f01a01"/>
      <stop offset="1" stop-color="#fd8109"/>
    </linearGradient>
    <linearGradient id="linear-gradient-9" x1="995.04" y1="758.4" x2="1069.67" y2="629.15" gradientUnits="userSpaceOnUse">
      <stop offset="0" stop-color="#f01a01"/>
      <stop offset="1" stop-color="#fd8109"/>
    </linearGradient>
    <linearGradient id="linear-gradient-10" x1="1116.41" y1="863.97" x2="1191.04" y2="734.72" gradientUnits="userSpaceOnUse">
      <stop offset="0" stop-color="#f01a01"/>
      <stop offset="1" stop-color="#fd8109"/>
    </linearGradient>
    <linearGradient id="linear-gradient-11" x1="908.12" y1="1792.1" x2="1591.04" y2="1109.18" gradientUnits="userSpaceOnUse">
      <stop offset="0" stop-color="#0c7a52"/>
      <stop offset="1" stop-color="#2d9b50"/>
    </linearGradient>
    <linearGradient id="linear-gradient-12" x1="888.42" y1="1772.4" x2="1571.34" y2="1089.48" gradientUnits="userSpaceOnUse">
      <stop offset="0" stop-color="#1a8457"/>
      <stop offset="1" stop-color="#83d67e"/>
    </linearGradient>
  </defs>
  <path class="cls-2" d="m952.66,1843.24l745.61-732.41c36.25-42.25,165.28-202.91,161.66-438.79-2.47-161.12-65.64-279.56-98.97-333.21-14.45-23.58-145.07-228.68-402.5-254.03-233.48-23-391.73,119.54-415.69,141.86-20.76-20.83-173.61-168.96-405.8-148.46-242.02,21.37-367.86,208.08-382.7,230.94-34.59,42.16-113.94,150.64-128.67,310.12-20.64,223.5,104.2,394.47,131.97,428.89"/>
  <path class="cls-10" d="m434.69,807.31c18.99-15.61,58.49-43.55,115.47-52.79,28.32-4.59,53.04-3.29,71.71-.63,2.1.3,3.93-1.38,3.78-3.5-.67-8.95-.42-21.43,3.7-35.46,7.93-27.02,25.33-43.17,32.99-49.49,9.79-4.8,25.67-11.13,46.19-13.2,17.02-1.71,31.45.09,41.75,2.28,2.16.46,4.14-1.27,3.95-3.47-1.06-12.38-1.14-40.44,16.98-68.09,19.48-29.72,47.63-40.12,56.09-42.89,33.05-10.53,54.87-6.59,69.28,0,27.31,12.49,38.01,39.08,56.09,36.29,10.89-1.68,18.34-13.09,23.09-23.09-24.19-47.29-48.39-94.58-72.58-141.86-18.17-27.35-63.18-87.03-145.16-125.37-67.81-31.71-129.35-34.05-161.66-32.99-29.86-1.71-79.27-.64-135.27,19.79-75.01,27.37-121.1,74.62-141.86,98.97-23.01,25.95-50.58,63.05-72.58,112.17-42.54,94.96-40.68,182.19-36.29,227.64,3.23,38.13,13.5,100.68,49.49,168.26,26.18,49.17,57.3,84.7,81.64,108.22,1.83,1.77,4.88.91,5.5-1.57.56-2.27,1.21-4.85,1.94-7.68,8.05-31.36,17.62-68.64,29.69-95.68,8.5-19.03,24.42-46.84,56.09-75.88Z"/>
  <path class="cls-1" d="m949.36,1526.52c-172.66-182.55-345.31-365.11-517.97-547.66-9.29,42.88-17.48,113.4,13.2,184.75,20.2,46.99,49.33,75.73,62.68,89.08,135.27,135.27,270.53,270.53,405.8,405.8-3.36-12.16-10.7-45.12,3.3-82.48,9.26-24.7,23.95-40.94,32.99-49.49Z"/>
  <path class="cls-9" d="m949.92,502.78c11.17-31.6,37.17-91.86,95.11-147.46,58.16-55.8,119.7-79.27,151.76-89.08,31.94-9.31,136.98-35.55,254.03,13.2,89.61,37.32,140.68,99.61,161.66,128.67,22.84,36.06,61.85,108.16,72.58,207.85,10.68,99.23-11.83,177.66-26.39,217.74-7.03,23.95-19.61,57.17-42.89,92.38-22.29,33.71-46.84,57.83-66.24,74.02-2.27,1.89-5.67.07-5.37-2.87,2-19.63,2.19-48.46-7.57-81.04-17.6-58.77-56.55-92.96-72.58-105.57-9.56-10.93-39.16-41.91-89.08-52.79-39.73-8.66-72.5-.26-88.52,5.22-1.97.67-4.06-.58-4.34-2.64-1.34-9.95-4.01-22.24-9.41-35.58-9.63-23.8-23.52-40.08-32.99-49.49-4.9-6.09-16.57-18.93-36.29-26.39-19.04-7.21-36.03-5.8-45.32-4.15-2.09.37-3.97-1.27-3.86-3.38.6-11.45-.18-30.95-10.2-51.85-16.79-35.03-47.63-49.22-56.09-52.79-6.55-3.68-32.84-17.42-65.98-9.9-24.73,5.62-40.19,20.1-46.19,26.39"/>
  <path class="cls-11" d="m613.53,836.49c1.52.28,2.64,1.54,2.71,3.08.62,14.26,4.2,45.67,26.31,76.62,23.79,33.29,55.29,46.83,69.33,51.7,1.75.61,2.65,2.55,1.97,4.28-6.36,16.27-13.49,40.03-15.22,69.38-1.7,28.92,2.44,52.9,6.6,69.28,15.4,25.29,30.79,50.59,46.19,75.88-23.09,28.59-46.19,57.19-69.28,85.78-68.13-58.98-136.26-117.95-204.38-176.93-17.34-15.01-30.65-34.19-38.13-55.87-5.2-15.08-8.95-33.4-8.23-54.23,2.46-71.09,54.99-112.86,62.68-118.77,10.48-8.46,31.78-23.3,62.68-29.69,23.8-4.92,43.98-2.9,56.77-.51Z"/>
  <path class="cls-6" d="m1351.86,837c11.82,2.11,56.63,11.55,89.08,52.79,42.4,53.89,28.35,117.18,26.39,125.37-6.82,13.55-15.44,28.11-26.39,42.89-36.65,49.46-81.51,77.28-112.17,92.38-57.71,32.34-130.77,80.78-204.55,151.76-83.97,80.78-139.43,162.42-174.86,224.34-89.08-84.68-178.15-169.36-267.23-254.03l69.28-85.78c10.94,9.13,48.91,38.51,105.57,39.59,50.62.97,86.56-21.21,98.97-29.69,71.14,45.47,163.19,32.41,214.44-26.39,43.09-49.45,50.67-123.58,18.15-184.99-.88-1.66-.25-3.69,1.45-4.5,14.64-7.01,43.9-23.79,66.17-57.94,21.93-33.63,25.67-66.58,26.3-82.63.07-1.77,1.52-3.15,3.29-3.15h66.08Z"/>
  <path class="cls-3" d="m953.76,833.97c6.51-.75,25.8-2.12,45.09,9.62,12.46,7.58,19.58,17.39,23.09,23.09,31.45,51.38,62.91,102.75,94.36,154.13,3.51,5.74,5.6,12.25,6.01,18.97,2.33,38.34-19.08,74.86-54.19,90.84-30.73,13.98-66.31,9.67-93.02-9.5-13.11-9.41-30.71-9.64-44.02-.51-22.72,15.58-50.56,21.94-77.41,16.61-38.28-7.61-69.12-37.95-79.3-77.1-2.81-10.79-.87-22.28,5.02-31.75,32.98-52.97,65.96-105.93,98.94-158.9,1.25-2.01,2.66-3.89,4.27-5.62,5.63-6.06,14.51-14.01,27.16-20.25,18.42-9.09,35.32-9.84,43.99-9.62Z"/>
  <path class="cls-7" d="m721.72,731.43c-5.88,4.94-16.94,15.66-23.09,32.99-10.17,28.6.66,53.68,3.3,59.38.5,2.11,10.06,40.1,42.89,49.49,12.15,3.47,23.02,1.76,29.69,0,6.26-4.22,13.68-10.54,19.79-19.79,20.22-30.61,8.59-66.7,6.6-72.58-.92-3.16-12.21-39.85-46.19-49.49-13.75-3.9-25.92-1.87-32.99,0Z"/>
  <path class="cls-12" d="m845.54,624.05c-5.88,4.94-16.94,15.66-23.09,32.99-10.17,28.6.66,53.68,3.3,59.38.5,2.11,10.06,40.1,42.89,49.49,12.15,3.47,23.02,1.76,29.69,0,6.26-4.22,13.68-10.54,19.79-19.79,20.22-30.61,8.59-66.7,6.6-72.58-.92-3.16-12.21-39.85-46.19-49.49-13.75-3.9-25.92-1.87-32.99,0Z"/>
  <path class="cls-8" d="m1060.85,624.05c5.88,4.94,16.94,15.66,23.09,32.99,10.17,28.6-.66,53.68-3.3,59.38-.5,2.11-10.06,40.1-42.89,49.49-12.15,3.47-23.02,1.76-29.69,0-6.26-4.22-13.68-10.54-19.79-19.79-20.22-30.61-8.59-66.7-6.6-72.58.92-3.16,12.21-39.85,46.19-49.49,13.75-3.9,25.92-1.87,32.99,0Z"/>
  <path class="cls-5" d="m1182.21,729.62c5.88,4.94,16.94,15.66,23.09,32.99,10.17,28.6-.66,53.68-3.3,59.38-.5,2.11-10.06,40.1-42.89,49.49-12.15,3.47-23.02,1.76-29.69,0-6.26-4.22-13.68-10.54-19.79-19.79-20.22-30.61-8.59-66.7-6.6-72.58.92-3.16,12.21-39.85,46.19-49.49,13.75-3.9,25.92-1.87,32.99,0Z"/>
  <path class="cls-4" d="m1566.3,1084.44c.27,35.79-4.13,91.02-29.69,151.76-13.07,31.05-28.63,56.3-42.89,75.88-179.25,175.95-358.51,351.91-537.76,527.86,31.89-98.97,63.78-197.95,95.68-296.92l293.62-257.33c73.68-67.08,147.36-134.17,221.04-201.25Z"/>
  <path class="cls-13" d="m955.96,1839.94c.3-44.8,5.21-108.48,26.39-181.45,12.82-44.17,40.32-133.25,112.17-221.04,67.75-82.78,133.36-133.6,181.45-164.96,47.66-31.07,81.11-44.97,155.06-92.38,59.15-37.92,105.32-72.35,135.27-95.68-4.4,19.79-8.8,39.59-13.2,59.38-9.11,19.5-22.71,43.89-42.89,69.28-19.56,24.61-39.56,42.96-56.09,56.09-90.18,65.98-180.35,131.97-270.53,197.95-38.53,38.27-83.24,89.46-125.37,155.06-52.31,81.47-83.37,158.3-102.27,217.74Z"/>
</svg>