<?xml version="1.0" encoding="UTF-8"?>
<svg id="Logo_Mark_-_Gradient" data-name="Logo Mark - Gradient" xmlns="http://www.w3.org/2000/svg" xmlns:xlink="http://www.w3.org/1999/xlink" viewBox="0 0 1920 1920">
  <defs>
    <style>
      .cls-1 {
        fill: url(#linear-gradient-2);
      }

      .cls-2 {
        fill: #fff;
      }

      .cls-3 {
        fill: url(#linear-gradient-6);
      }

      .cls-4 {
        fill: url(#linear-gradient-11);
      }

      .cls-5 {
        fill: url(#linear-gradient-10);
      }

      .cls-6 {
        fill: url(#linear-gradient-5);
      }

      .cls-7 {
        fill: url(#linear-gradient-7);
      }

      .cls-8 {
        fill: url(#linear-gradient-9);
      }

      .cls-9 {
        fill: url(#linear-gradient-3);
      }

      .cls-10 {
        fill: url(#linear-gradient);
      }

      .cls-11 {
        fill: url(#linear-gradient-4);
      }

      .cls-12 {
        fill: url(#linear-gradient-8);
      }

      .cls-13 {
        fill: url(#linear-gradient-12);
      }
    </style>
    <linearGradient id="linear-gradient" x1="494.5" y1="512.32" x2="709.98" y2="727.81" gradientUnits="userSpaceOnUse">
      <stop offset="0" stop-color="#32f7fd"/>
      <stop offset="1" stop-color="#11a2fc"/>
    </linearGradient>
    <linearGradient id="linear-gradient-2" x1="951.22" y1="1374.03" x2="548.6" y2="971.41" gradientUnits="userSpaceOnUse">
      <stop offset="0" stop-color="#0d945b"/>
      <stop offset=".14" stop-color="#10955d"/>
      <stop offset=".27" stop-color="#1b9a65"/>
      <stop offset=".4" stop-color="#2ea271"/>
      <stop offset=".52" stop-color="#48ae83"/>
      <stop offset=".64" stop-color="#6abd9a"/>
      <stop offset=".76" stop-color="#94cfb6"/>
      <stop offset=".88" stop-color="#c5e5d8"/>
      <stop offset="1" stop-color="#fdfefd"/>
      <stop offset="1" stop-color="#fff"/>
    </linearGradient>
    <linearGradient id="linear-gradient-3" x1="1384.79" y1="529.53" x2="1181.74" y2="732.58" gradientUnits="userSpaceOnUse">
      <stop offset="0" stop-color="#f94f8f"/>
      <stop offset="1" stop-color="#e1055d"/>
    </linearGradient>
    <linearGradient id="linear-gradient-4" x1="795.59" y1="1058.7" x2="608.15" y2="871.27" gradientUnits="userSpaceOnUse">
      <stop offset="0" stop-color="#e30151"/>
      <stop offset="1" stop-color="#ff4787"/>
    </linearGradient>
    <linearGradient id="linear-gradient-5" x1="852.01" y1="1235.12" x2="1255.12" y2="832.01" gradientUnits="userSpaceOnUse">
      <stop offset="0" stop-color="#0757c9"/>
      <stop offset="1" stop-color="#19cbfb"/>
    </linearGradient>
    <linearGradient id="linear-gradient-6" x1="945.49" y1="1047.1" x2="945.49" y2="831.53" gradientUnits="userSpaceOnUse">
      <stop offset="0" stop-color="#f01a01"/>
      <stop offset="1" stop-color="#fd8109"/>
    </linearGradient>
    <linearGradient id="linear-gradient-7" x1="832.42" y1="854.3" x2="779.78" y2="763.12" gradientUnits="userSpaceOnUse">
      <stop offset="0" stop-color="#f01a01"/>
      <stop offset="1" stop-color="#fd8109"/>
    </linearGradient>
    <linearGradient id="linear-gradient-8" x1="919.77" y1="778.55" x2="867.13" y2="687.37" gradientUnits="userSpaceOnUse">
      <stop offset="0" stop-color="#f01a01"/>
      <stop offset="1" stop-color="#fd8109"/>
    </linearGradient>
    <linearGradient id="linear-gradient-9" x1="978.82" y1="778.55" x2="1031.46" y2="687.37" gradientUnits="userSpaceOnUse">
      <stop offset="0" stop-color="#f01a01"/>
      <stop offset="1" stop-color="#fd8109"/>
    </linearGradient>
    <linearGradient id="linear-gradient-10" x1="1064.44" y1="853.03" x2="1117.08" y2="761.85" gradientUnits="userSpaceOnUse">
      <stop offset="0" stop-color="#f01a01"/>
      <stop offset="1" stop-color="#fd8109"/>
    </linearGradient>
    <linearGradient id="linear-gradient-11" x1="917.5" y1="1507.78" x2="1399.27" y2="1026.01" gradientUnits="userSpaceOnUse">
      <stop offset="0" stop-color="#0c7a52"/>
      <stop offset="1" stop-color="#2d9b50"/>
    </linearGradient>
    <linearGradient id="linear-gradient-12" x1="903.6" y1="1493.88" x2="1385.37" y2="1012.11" gradientUnits="userSpaceOnUse">
      <stop offset="0" stop-color="#1a8457"/>
      <stop offset="1" stop-color="#83d67e"/>
    </linearGradient>
  </defs>
  <path class="cls-2" d="m948.92,1543.85l525.99-516.68c25.57-29.81,116.59-143.14,114.04-309.54-1.74-113.66-46.31-197.21-69.82-235.07-10.19-16.63-102.34-161.32-283.94-179.21-164.71-16.22-276.35,84.33-293.25,100.08-14.65-14.69-122.47-119.19-286.27-104.73-170.73,15.07-259.51,146.79-269.98,162.92-24.4,29.74-80.38,106.27-90.77,218.77-14.56,157.67,73.51,278.28,93.1,302.56"/>
  <path class="cls-10" d="m583.52,813.05c13.4-11.02,41.26-30.72,81.46-37.24,19.98-3.24,37.42-2.32,50.59-.44,1.48.21,2.78-.98,2.66-2.47-.48-6.31-.3-15.12,2.61-25.01,5.59-19.06,17.87-30.45,23.27-34.91,6.91-3.39,18.11-7.85,32.58-9.31,12.01-1.21,22.18.07,29.45,1.61,1.52.32,2.92-.9,2.79-2.45-.75-8.74-.81-28.53,11.98-48.04,13.74-20.97,33.6-28.3,39.57-30.26,23.31-7.43,38.71-4.65,48.88,0,19.26,8.81,26.82,27.57,39.57,25.6,7.68-1.18,12.94-9.23,16.29-16.29-17.07-33.36-34.14-66.72-51.2-100.08-12.82-19.3-44.57-61.4-102.4-88.44-47.84-22.37-91.25-24.02-114.04-23.27-21.07-1.21-55.92-.45-95.42,13.96-52.91,19.31-85.43,52.64-100.08,69.82-16.23,18.3-35.68,44.48-51.2,79.13-30.01,66.99-28.7,128.53-25.6,160.59,2.28,26.9,9.52,71.03,34.91,118.7,18.47,34.69,40.42,59.75,57.59,76.34,1.29,1.25,3.45.64,3.88-1.11.4-1.6.86-3.42,1.37-5.42,5.68-22.12,12.43-48.42,20.95-67.49,5.99-13.42,17.23-33.05,39.57-53.53Z"/>
  <path class="cls-1" d="m946.15,1314.07c-119.98-124.92-239.96-249.85-359.94-374.77-2.13-2.22-5.89-1.12-6.46,1.9-5.82,30.59-9.26,76.65,10.76,123.21,14.25,33.15,34.8,53.42,44.22,62.84,92.98,92.98,185.97,185.97,278.95,278.95,2.46,2.46,6.66.58,6.47-2.9-1.22-22.53,2.57-36.43,6.86-45.31.57-1.18,1.5-3,19-38l.8-1.61c.72-1.44.45-3.17-.66-4.32Z"/>
  <path class="cls-9" d="m946.99,598.23c7.88-22.29,26.22-64.8,67.1-104.02,41.03-39.36,84.44-55.92,107.06-62.84,22.53-6.57,96.63-25.08,179.21,9.31,63.22,26.33,99.24,70.27,114.04,90.77,16.11,25.44,43.63,76.3,51.2,146.63,7.54,70-8.35,125.33-18.62,153.61-4.96,16.9-13.83,40.33-30.26,65.17-15.73,23.78-33.04,40.8-46.73,52.21-1.6,1.33-4,.05-3.79-2.03,1.41-13.85,1.54-34.19-5.34-57.17-12.42-41.46-39.9-65.58-51.2-74.48-6.74-7.71-27.63-29.56-62.84-37.24-28.03-6.11-51.14-.18-62.45,3.69-1.39.47-2.87-.41-3.06-1.86-.94-7.02-2.83-15.69-6.64-25.1-6.79-16.79-16.6-28.27-23.27-34.91-3.45-4.3-11.69-13.35-25.6-18.62-13.43-5.09-25.42-4.09-31.97-2.93-1.47.26-2.8-.89-2.72-2.39.42-8.07-.13-21.83-7.2-36.58-11.85-24.71-33.6-34.73-39.57-37.24-4.62-2.59-23.17-12.29-46.55-6.98-17.44,3.96-28.35,14.18-32.58,18.62"/>
  <path class="cls-11" d="m709.68,833.64c1.07.2,1.86,1.08,1.91,2.17.44,10.06,2.96,32.22,18.56,54.05,16.78,23.49,39.01,33.03,48.91,36.47,1.24.43,1.87,1.8,1.39,3.02-4.49,11.48-9.51,28.24-10.74,48.95-1.2,20.4,1.72,37.32,4.65,48.88,10.86,17.84,21.72,35.69,32.58,53.53-16.29,20.17-32.58,40.34-48.88,60.51-48.06-41.61-96.12-83.21-144.18-124.82-12.23-10.59-21.62-24.12-26.9-39.41-3.67-10.64-6.31-23.56-5.8-38.26,1.74-50.15,38.79-79.62,44.22-83.79,7.4-5.97,22.42-16.44,44.22-20.95,16.79-3.47,31.03-2.05,40.05-.36Z"/>
  <path class="cls-6" d="m1230.45,834c.06,0,.11,0,.16.01,8.45,1.52,39.94,8.22,62.76,37.22,29.75,37.81,20.11,82.18,18.64,88.34-.02.07-.04.13-.07.19-4.8,9.53-10.87,19.77-18.57,30.16-25.85,34.89-57.5,54.52-79.13,65.17-47.33,23.3-80.92,53.69-144.3,107.06-35.89,30.22-82.28,78.62-123.36,156.74-.29.55-1.02.67-1.47.25l-186.41-177.34c-.35-.34-.39-.89-.08-1.27l47.74-59.1c.33-.4.91-.47,1.32-.14,8.57,7.03,34.94,26.59,73.76,27.33,35.06.67,60.13-14.39,69.33-20.61.31-.21.7-.21,1.01-.01,50.11,31.69,114.74,22.4,150.77-18.94,30.21-34.67,35.68-86.55,13.22-129.71-.84-1.61-.19-3.58,1.44-4.37,10.57-5.17,30.55-17.01,45.85-40.47,15.08-23.13,17.97-45.81,18.52-57.42.08-1.74,1.52-3.09,3.26-3.09h45.64Z"/>
  <path class="cls-3" d="m949.69,831.87c4.6-.53,18.2-1.5,31.81,6.79,8.79,5.35,13.81,12.27,16.29,16.29,22.19,36.24,44.38,72.49,66.57,108.73,2.48,4.05,3.95,8.64,4.24,13.38,1.64,27.05-13.46,52.81-38.23,64.08-21.68,9.87-46.78,6.82-65.62-6.7-9.25-6.64-21.66-6.8-31.06-.36-16.03,10.99-35.67,15.48-54.61,11.72-27.01-5.37-48.76-26.77-55.94-54.39-1.98-7.61-.61-15.72,3.54-22.4,23.27-37.37,46.53-74.73,69.8-112.1.88-1.42,1.87-2.74,3.01-3.97,3.97-4.27,10.24-9.89,19.16-14.29,13-6.41,24.92-6.94,31.03-6.79Z"/>
  <path class="cls-7" d="m786,759.52c-4.15,3.49-11.95,11.05-16.29,23.27-7.17,20.18.47,37.87,2.33,41.89.35,1.49,7.1,28.29,30.26,34.91,8.57,2.45,16.24,1.24,20.95,0,4.42-2.98,9.65-7.44,13.96-13.96,14.27-21.59,6.06-47.05,4.65-51.2-.65-2.23-8.61-28.11-32.58-34.91-9.7-2.75-18.28-1.32-23.27,0Z"/>
  <path class="cls-12" d="m873.35,683.78c-4.15,3.49-11.95,11.05-16.29,23.27-7.17,20.18.47,37.87,2.33,41.89.35,1.49,7.1,28.29,30.26,34.91,8.57,2.45,16.24,1.24,20.95,0,4.42-2.98,9.65-7.44,13.96-13.96,14.27-21.59,6.06-47.05,4.65-51.2-.65-2.23-8.61-28.11-32.58-34.91-9.7-2.75-18.28-1.32-23.27,0Z"/>
  <path class="cls-8" d="m1025.24,683.78c4.15,3.49,11.95,11.05,16.29,23.27,7.17,20.18-.47,37.87-2.33,41.89-.35,1.49-7.1,28.29-30.26,34.91-8.57,2.45-16.24,1.24-20.95,0-4.42-2.98-9.65-7.44-13.96-13.96-14.27-21.59-6.06-47.05-4.65-51.2.65-2.23,8.61-28.11,32.58-34.91,9.7-2.75,18.28-1.32,23.27,0Z"/>
  <path class="cls-5" d="m1110.86,758.25c4.15,3.49,11.95,11.05,16.29,23.27,7.17,20.18-.47,37.87-2.33,41.89-.35,1.49-7.1,28.29-30.26,34.91-8.57,2.45-16.24,1.24-20.95,0-4.42-2.98-9.65-7.44-13.96-13.96-14.27-21.59-6.06-47.05-4.65-51.2.65-2.23,8.61-28.11,32.58-34.91,9.7-2.75,18.28-1.32,23.27,0Z"/>
  <path class="cls-4" d="m1381.81,1008.55c.19,25.25-2.91,64.21-20.95,107.06-9.22,21.91-20.2,39.72-30.26,53.53-126.45,124.13-252.91,248.25-379.36,372.38,22.5-69.82,45-139.64,67.49-209.46l207.14-181.54c51.98-47.32,103.96-94.65,155.93-141.97Z"/>
  <path class="cls-13" d="m951.24,1541.52c.21-31.61,3.67-76.53,18.62-128.01,9.05-31.16,28.44-94,79.13-155.93,47.8-58.4,94.08-94.25,128.01-116.37,33.63-21.92,57.22-31.72,109.39-65.17,41.73-26.75,74.3-51.04,95.42-67.49-3.1,13.96-6.21,27.93-9.31,41.89-6.43,13.76-16.02,30.96-30.26,48.88-13.8,17.36-27.91,30.3-39.57,39.57-63.62,46.55-127.23,93.1-190.85,139.64-27.18,27-58.72,63.11-88.44,109.39-36.9,57.47-58.82,111.67-72.15,153.61Z"/>
</svg>