<svg xmlns="http://www.w3.org/2000/svg" viewBox="0 0 100 100" role="img" aria-label="AdoptDontShop">
  
  <defs>
    <mask id="paw-cutout">
      <rect width="100" height="100" fill="white"></rect>
      <ellipse cx="32" cy="62" rx="5.5" ry="7" fill="black" transform="rotate(-18 32 62)"></ellipse>
      <ellipse cx="43" cy="55" rx="5.5" ry="7.5" fill="black" transform="rotate(-6 43 55)"></ellipse>
      <ellipse cx="57" cy="55" rx="5.5" ry="7.5" fill="black" transform="rotate(6 57 55)"></ellipse>
      <ellipse cx="68" cy="62" rx="5.5" ry="7" fill="black" transform="rotate(18 68 62)"></ellipse>
      <path d="M50 67 C 40 67, 33 73, 33 80 C 33 86, 41 89, 50 89 C 59 89, 67 86, 67 80 C 67 73, 60 67, 50 67 Z" fill="black"></path>
    </mask>
  </defs>
  <path d="M50 10 C 53 10, 55 11, 57 13 L 88 42 C 90 44, 91 46, 91 49 L 91 84 C 91 88, 87 92, 83 92 L 17 92 C 13 92, 9 88, 9 84 L 9 49 C 9 46, 10 44, 12 42 L 43 13 C 45 11, 47 10, 50 10 Z" fill="currentColor" mask="url(#paw-cutout)"></path>
</svg>